<svg xmlns="http://www.w3.org/2000/svg">
    <symbol id="search" viewbox="0 0 18 18">
        <path fill="currentColor" d="M17.27 15.73l-3.41-3.42a7.75 7.75 0 1 0-1.54 1.54l3.42 3.42a1 1 0 0 0 .77.33 1.1 1.1 0 0 0 1.1-1.1 1 1 0 0 0-.34-.77zM2.2 7.7a5.5 5.5 0 1 1 5.5 5.5 5.5 5.5 0 0 1-5.5-5.5z"/>
    </symbol>
    <symbol id="basket" viewBox="0 0 20.29 18.85">
        <path fill="currentColor" d="M19.54 7.23h-3.15L13 .41a.75.75 0 1 0-1.34.67l3.07 6.14H5.58l3.07-6.13A.751.751 0 1 0 7.31.41L3.9 7.23H.75a.75.75 0 1 0 0 1.5h.16l.85 3a.73.73 0 0 0 .38 1.33l1.66 5.79h12.7l1.66-5.79a.74.74 0 0 0 .7-.74.74.74 0 0 0-.32-.6l.85-3h.16a.75.75 0 0 0 0-1.5zm-4.18 10.12H4.93l-1.22-4.29h12.88zM17 11.56H3.28l-.81-2.83h15.36z"/>
    </symbol>
    <symbol id="phone" viewBox="0 0 24.8 24.3">
        <g>
            <path fill="currentColor" d="M17.3 24.3h-1.1c-4.9-.6-8.5-2.9-11.1-5.8C2.5 15.6.4 11.9 0 6.8V5.4c.1-.9.5-1.5 1.1-2.1.6-.7 1.6-1.5 2.5-1.6.7 0 1.8.5 2.2 1.1.4.5.6 1.6.8 2.4.2.9.6 2 .5 2.8-.2 1.2-1.8 1.7-2.2 2.6 1.6 3.7 4.1 6.5 7.5 8.3.8-.5 1.6-1.9 2.8-1.9.4 0 1 .2 1.4.3.5.1.9.3 1.3.5.7.3 2 .6 2.4 1.2.4.6.7 1.6.6 2.2-.3 1.3-2.4 2.7-3.6 3.1zM12.5 1.5c5.9 0 10.8 4.8 10.8 10.8h1.5C24.8 5.5 19.3 0 12.5 0v1.5z"/><path fill="currentColor" d="M12.5 9.3v1.6c.8 0 1.4.6 1.4 1.4h1.6c0-1.6-1.3-3-3-3zM12.5 6.2c3.3 0 6.1 2.7 6.1 6.1h1.6c0-4.2-3.4-7.6-7.6-7.6v1.5z"/>
        </g>
    </symbol>
    <symbol id="facebook" viewBox="0 0 14.96 27.72">
        <path fill="currentColor" d="M11.66 5.19a6.68 6.68 0 0 0 2.68-.3 8.12 8.12 0 0 0 .62-3c-.19 0-.06-.34-.21-.4s-.28-.19-.31-.4c-.28-.16-.46-.42-.72-.6L11.56 0A13.56 13.56 0 0 0 9 .11 6.62 6.62 0 0 0 3.72 2.5c0 .08 0 .2-.1.2-.62 1.59-.13 3.62-.21 5.58.1.44.11 1 .2 1.39a18.82 18.82 0 0 1-3.4.5c-.31.33-.21 1.09-.21 1.7a15 15 0 0 0 .41 1.59 3.53 3.53 0 0 0 .83.5c.06 0 .07.08.1.1.51.27 1.45 0 2.27.1-.14 2 .26 3.92 0 5.68 0 .33.29.38.21.8A8.25 8.25 0 0 0 4 23.33a2.63 2.63 0 0 0-.41 1.79c.12 0 .11.16.1.3-.07.47.64.17.52.7.16.46-.43.18-.41.5v.9a6 6 0 0 0 2.27.2c.91-.42 2.19-.48 2.79-1.2a1.28 1.28 0 0 0 1.24-.2c0-.32.27-.33.21-.7s-.17-.5-.1-.9v-2.89c-.21-2.29 0-4.94-.31-7.18a9.1 9.1 0 0 0 2.58-.4 4.85 4.85 0 0 0 .52-1.88 1.56 1.56 0 0 0 .21-1c.19-.21.07-.73.1-1.1-.14-.6-.17-1.3-.83-1.39-.88-.24-2 .6-3 .3 0-1.13-.29-2.34 0-3.39.76-.18 1.46-.4 2.18-.6zM7.84 10a3.76 3.76 0 0 0 .41.7c.08 0 .2 0 .21.1a10.32 10.32 0 0 0 3.1-.3A7.46 7.46 0 0 1 11 13a10 10 0 0 1-2 .2c-.28.16-.37.51-.62.7 0 .44.14.5 0 .8-.2.14-.05.61-.21.8V17c.08.28-.15.26-.1.5v3.49c-.08.28.15.26.1.5v3c.06.27-.13.79.1.9-.07.36-.41 0-.82.1a7.66 7.66 0 0 1-1.55.4 2.81 2.81 0 0 0 .31-1.1c0-.38-.37-.31-.52-.5.19-.64.56-1.12.72-1.79.2-.51.71-1.3.31-1.79-.52-.11-.52.29-.83.4 0 .08 0 .2-.1.2s0 .2-.1.2-.15.06 0 0 0-.2.1-.2 0-.2.1-.2v-.3a5.71 5.71 0 0 0 .83-2 4.81 4.81 0 0 0 .41-1 1.29 1.29 0 0 0 .1-1.2 1 1 0 0 0-.93.7c-.32-.19.16-.43.1-.7.14-.23.17-.57.31-.8.2-.41.56-1.3 0-1.6a.66.66 0 0 0-.72.5 1.45 1.45 0 0 0-.52.7c-.37-.07-.14-.73-.21-1.1s.12-.9 0-1.2c-.56-.8-2-.11-3.2-.3a2.24 2.24 0 0 1-.1-1.2c1-.09 2.48.2 3.2-.2 0-.08 0-.2.1-.2.09-.72-.27-1-.51-1.4a17.1 17.1 0 0 0 .1-3c.23-.14.33-.41.51-.6.11-1 .67-1.48.72-2.49-.27 0-.61-.05-.62.2-.3-.11-.38.48-.51.2-.11-.54.25-.63.31-1 .6-.42 1.21-.82 1.86-1.2 1.74-.24 4.65-.45 6.09.2.05.62-.29.85-.21 1.5h-1.44a30.6 30.6 0 0 0-3 1c-.24.07-.28.33-.52.4a5.91 5.91 0 0 1-.31 1c-.07 1.41.14 2.57.11 3.98z"/>
    </symbol>
    <symbol id="instagram" fill="currentColor" viewBox="0 0 21.77 21.33">
        <path d="M21.77 12.15c0-2.39-.34-4.79-.3-7.13 0-.79-.09-1.54-.15-2.28a5.29 5.29 0 0 1-.15-1.06c-.27-.18-.23-.68-.47-.85C20.28.6 19.5.72 19 .61S17.7.49 17.06.45c-1.94-.1-4-.08-6-.08A43.25 43.25 0 0 1 5.37 0h-2.2c-.1 0-.11.1-.23.08a9.25 9.25 0 0 0-1.59.3 2.81 2.81 0 0 1-.68.3c-.15.2-.52.15-.62.38s.18.45 0 .61v.91c.17.13 0 .58.08.83v1c0 1.28.13 2.4.08 3.72a38.7 38.7 0 0 1 .08 9.41 14.11 14.11 0 0 1 .46 1.75 7.61 7.61 0 0 0 .68 1.52 6.73 6.73 0 0 0 1.9.23 4.34 4.34 0 0 0 1.14.3c2.84-.21 5.5-.15 8.43-.23a34.61 34.61 0 0 0 8.28-.23c.2-.13.13-.53.23-.76-.06-.38.21-.45.23-.76.11-2.36.14-4.79.13-7.21zm-13-6.22a9.43 9.43 0 0 1 2.43-.3 10.79 10.79 0 0 1 1.9.46c.12.18-.24.55.15.68v.08c.06 0 .15 0 .15.08a1.92 1.92 0 0 1 1.06.38c.45.05.54.48 1.14.38a2.18 2.18 0 0 0-.08.83 11.88 11.88 0 0 1 .3 4.25 1.86 1.86 0 0 0-.3.68c-.31.32-.48.79-.84 1.06a1.08 1.08 0 0 1-.45.53c-.12.21-.21.45-.46.53s-.58 0-.83-.08a3.44 3.44 0 0 0-1.21.61c-.82-.1-1.65-.17-2.43-.3a1.94 1.94 0 0 0-.83-.3 2 2 0 0 0-.83-.5c-.1-.13-.34-.12-.46-.23s-.23-.23-.46-.23c-.12-.41-.44-.62-.53-1.06a5.55 5.55 0 0 1-.46-1.21 13.41 13.41 0 0 1 .38-3.8c.35-.59.78-1.09 1.14-1.67.25 0 .37-.09.38-.3.31.05.43-.07.68-.08s.28-.36.47-.5zM7.11 3.19A3.27 3.27 0 0 1 7 2.13c0-.28.28-.28.3-.53 0-.07-.09-.06-.15-.08.13-.15.7-.1.83 0 .13.54-.35.46-.53.68 0 .17.32 0 .46.08 0 .85-.06 1.5 0 2.2h-.42c0 .23.23.23.46.23-.06.29.09.36.08.61-.23.15-.72 0-1.06.08-.11-.6.23-1.4.14-2.21zm-.68-1.6c.09 0 .13 0 .15.08.18.25 0 .68-.08.91-.17-.18-.02-.68-.07-.99zm.15 1.82c-.13-.07-.17-.24-.15-.46.13.05.17.25.15.47zm0 1.37c-.06.14-.08 0-.08-.15s.09.05.08.15zM6.43 5c.17 0 .08.22.23.23 0 .19-.28.18-.38.08s.11-.19.15-.31zM4.08 3.79c0-.11 0-.21-.08-.23-.07-.73.13-1.41 0-2 .25-.15.77 0 1.14-.08v1.18a.49.49 0 0 1-.38.08c-.05.28.32.13.38.3a9.3 9.3 0 0 0 .15 2.43c-.57-.06-.91.11-1.44.08.1-.61 0-1.43.53-1.59-.01-.15-.26-.06-.3-.17zm-.53 0c-.2 0-.22-.53-.08-.61.33.01.25.51.08.61zm-.15 1a3.67 3.67 0 0 0 .08-.68c.22 0 .25.76-.09.67zm.23-2c-.26.05-.27-.27-.15-.38s.26.21.14.32zm0-1.14c0 .16-.05.2-.08.3-.18 0-.08-.22-.23-.23.02-.15.19-.11.3-.13zm-.24 3.66c.15 0 .11.34-.08.23a.36.36 0 0 0 .08-.23zm-.68-3.72c0 .26-.44.32-.38 0zm-1 .08c0 .22-.33.18-.38.38-.2-.17.1-.47.39-.38zm-.46.76L2 1.82c0-.12.07-.13.08-.23h.23c.1.38-.26.3-.3.53s-.07.13-.08.23a4.67 4.67 0 0 1 .08 1c-.27 0-.28.28-.61.23-.03-.44-.19-.69-.13-1.15zm.08 3.26V4.1c.2-.18.4-.36.61-.53.29.49.18 1.39.46 1.9-.27.15-.74.11-1.06.22zm18.23 11.09a21.35 21.35 0 0 1-.38 2.81c-2.89.12-6 0-8.88.15-.2 0-.27 0-.23-.23-.25 0-.26.25-.53.23.2-.34.44-.9.15-1.29-.8 0-.8.82-1.14 1.29-.69-.05-1.14.13-1.82.08.18-.71.75-1 .91-1.75-.39-.55-1 .14-1.21.45-.2.48-.56.81-.76 1.29h-1c.24-.47.49-.93.76-1.37s.62-.74.68-1.37c-.16-.28-.42 0-.68 0-.12.18-.27.33-.38.53a8.63 8.63 0 0 0-.68 1.14c-.18.21-.33 0-.53.23-.39.27-.58.74-1 1-.17-.06 0-.36.15-.38 0-.18-.1-.55.08-.61a2.41 2.41 0 0 1 .38-.91c.12-.74.52-1.2.68-1.9-.56.1-.67.64-1 1a7.29 7.29 0 0 0-.68 1.29c-.17-.13 0-.58-.08-.84.12-.59.3-1.12.38-1.75A2.61 2.61 0 0 0 3 15a.71.71 0 0 0-.08-.76.54.54 0 0 0-.45.3c-.19 0-.19.51-.3.3 0-2.59-.45-4.81-.46-7.44 0-.33-.18-.42-.23-.68 1.63 0 3.12.09 4.78.23a3.45 3.45 0 0 1-.3.38 1.88 1.88 0 0 0-.38.3A12.67 12.67 0 0 0 5 13.82a4.39 4.39 0 0 0 1 1.44c.91.49 1.63 1.15 2.51 1.67a14.15 14.15 0 0 0 5.54 0 4.32 4.32 0 0 0 .68-.38c1.36-1.24 2.75-2.46 3-4.86v-1.37a4.93 4.93 0 0 0-1.75-3.64c.33-.22 1.1 0 1.67.08a5.8 5.8 0 0 0 .68 0 8.77 8.77 0 0 1 1.44 0c.14.19.11.54.23.76-.06 1.68-.19 3.3-.15 5.09.1.45.13 1 .23 1.44a17 17 0 0 1-.52 2.73zm.38-11.16c-.64-.12-1.23-.28-1.9-.38.07-.33.8 0 1-.23.38-.22.29-.92.3-1.52a5 5 0 0 0 .08-1.06C19 1.48 17.63 2 16.53 2a6 6 0 0 0-.3 2.66c.17.49 1 .29 1.52.46-.14.33-.69.06-1 .08s-.71-.05-1-.15c-2.29.08-4.28 0-6.53.15a17.2 17.2 0 0 0-.08-3.64h3.11c-.34.36-.91.51-1.29.84a3.15 3.15 0 0 0-1.14.91c.25.13.54-.25.76-.38s.48-.38.83-.46a5.9 5.9 0 0 1 1.67-.91 3.54 3.54 0 0 1 1 .08c1.28 0 2.46.13 3.8.08a13 13 0 0 1 2 .3 7.11 7.11 0 0 1 .3.91 25.58 25.58 0 0 1-.24 2.69zM14.1 1.9c.11 0 0-.09 0 0zm0 0a3.26 3.26 0 0 0-1.37.68 3.31 3.31 0 0 0 1.37-.68zm1.06.61c.11 0 0-.09 0 0zm-1.75.91a6 6 0 0 0 1.75-.91c-.44 0-.59.32-1 .38-.16.21-.59.25-.74.53zm-.68-.84c-.11 0 0 .09 0 0zm-.73.61c.11 0 0-.09 0 0zm0 .07c.06 0 .07 0 .08-.08s-.08.04-.08.08zm-.08.08c.06 0 .07 0 .08-.08s-.1.03-.1.08zm-.83.61a2.06 2.06 0 0 0 .83-.61 2 2 0 0 0-.86.61zm2.28 1c.53 0 .75-.42 1.21-.53.28-.3.78-.38 1-.76-.56 0-.77.4-1.22.53-.36.28-.79.4-1.02.74zm-2.28-1c-.32-.07 0 .23 0 0zm-.53.38s.12 0 .08-.08-.15.04-.11.08zm2.81.61c-.11 0 0 .09 0 0zM12.2 6.76c-.22-.23-.68-.23-1-.38a5.32 5.32 0 0 0-1.75.23l-.91.45a4.08 4.08 0 0 1-.76.53c-.21.22-.35.51-.68.61 0 .22-.17.28-.3.38s-.09.31-.23.38 0 .29-.08.3a18.36 18.36 0 0 0 .68 4.18c.29.62 1 .85 1.44 1.29a6.32 6.32 0 0 0 2.13.53 3.19 3.19 0 0 1 .91-.08 5.09 5.09 0 0 0 2.81-1.44 1.58 1.58 0 0 1 .45-.68c-.25-.67.29-1.1.46-1.6A8.52 8.52 0 0 0 14.78 8c-.26-.58-.92-.75-1.37-1.14-.06 0-.15 0-.15-.08a1.36 1.36 0 0 0-1.06-.02zm-3.42 4.32c-.11-.06-.11-.24-.15-.38.26-.07.12.24.15.38zm.08.3c0-.12.08 0 .08.08s-.08.01-.08-.07zm.46-2.05c0-.09.08 0 .08 0s-.08.05-.08.01zM11 7.21c-.2.26 0 .58.08.84-.32-.05-.59-.89-.08-.84zm.38 3.95s.05-.1.08-.08-.07.1-.09.08zm.74 2.84c0-.11.07 0 .15 0a.08.08 0 0 1-.15 0zm2.2-2.58c-.23-.06-.14.21-.38.15a1.57 1.57 0 0 1 .23-.46c.14.07.18.18.16.35zm-1.14-3.8a2.75 2.75 0 0 1 .61.38 2 2 0 0 0 .38.53 20.57 20.57 0 0 1 .15 2.35c-.26.1-.44.27-.68.38a4.44 4.44 0 0 1-1.9-.46c-.17-.26-.36-.5-.53-.76V9a4.2 4.2 0 0 0 .46-.61c.23-.13.51-.2.45-.61a.38.38 0 0 1-.12-.19c.16 0 .25.16.38.23.37.02.46-.2.81-.15z"/>
    </symbol>
    <symbol id="twitter" viewBox="0 0 23.49 20.17">
        <path fill="currentColor" d="M23.45 4.08c-.23-.37-.91-.28-1.41-.37h-1.11a8.34 8.34 0 0 1 .52-1 5.42 5.42 0 0 0 .22-1.26c.13-.17.18-.42.3-.59s.24-.48.07-.67-.29-.19-.59-.19a.51.51 0 0 0-.22.15c-.45.43-.78 1-1.26 1.41h-.07c-.09 0 0 0-.08.07l-.37.22a3 3 0 0 1-.89.52A6.08 6.08 0 0 0 16.71 2a6.44 6.44 0 0 0-3 .74 7.32 7.32 0 0 0-2.15 1.63c0 .32-.34.4-.37.74 0 0 0 .09-.07.07 0 .24-.05.34-.07.52s.2.43 0 .52a7.15 7.15 0 0 1-2.15-1 10.15 10.15 0 0 1-2.12-1.06A6 6 0 0 1 5 2.82c-.21-.31-.54-.5-.67-.89C4 1.77 4.16 1 3.59 1c-.32 0-.34.2-.44.37s-.36.23-.37.52c0 0 0 .09-.07.08a17.77 17.77 0 0 0-.52 3.26 3.07 3.07 0 0 0 .59 1 1.11 1.11 0 0 0-.89.52 3.72 3.72 0 0 0 .74 2.3 2.94 2.94 0 0 0 .59 1c0 .23.21.29.3.45s.12.13.15.22.29.18.07.22c-.41.13-1 .07-1.26.37a1.92 1.92 0 0 0 0 1.11c0 .24.28.26.3.52a18.31 18.31 0 0 0 1.63 1.11 15.23 15.23 0 0 0 1.85.37 1.44 1.44 0 0 1-.59.74 19.23 19.23 0 0 1-2.74.74c-.56 0-1 .23-1.56.22-.33.13-.85.08-1.11.22s-.1.1-.22.22a.72.72 0 0 0 .44.89c0 .25.22.28.37.37a.8.8 0 0 0 .44.37 10.58 10.58 0 0 0 1.93 1.11c.83.18 1.65.38 2.52.52s1.9.12 2.82.22h1a9.91 9.91 0 0 0 1.85.07c.09-.1.32-.07.52-.07a9.28 9.28 0 0 0 1.63-.74c.57-.24 1-.64 1.56-.89a10 10 0 0 0 2.52-2.37 1.66 1.66 0 0 0 .45-.74c.26-.16.38-.45.59-.67a9.92 9.92 0 0 0 1-1.41c.32-.5.58-1.05.89-1.56 0-.41.31-.48.3-.89.19-.23.18-.66.37-.89a1.38 1.38 0 0 1 .07-.59A12.15 12.15 0 0 0 21 5.94a5.74 5.74 0 0 0 1.63-.59c.54-.19 1.01-.59.82-1.27zM20 8.16a4.73 4.73 0 0 1-1 2c.06.38-.1.54-.07.89a4.31 4.31 0 0 0-.37 1c-.2.27-.33.61-.52.89-.37.55-.78 1.05-1.19 1.56s-.91 1-1.33 1.48-.94.88-1.41 1.33a5 5 0 0 0-1.26.67 5 5 0 0 0-.67.3c-.18.15-.5.14-.67.3a24 24 0 0 1-3.51.18 26.33 26.33 0 0 1-3-.37 11.79 11.79 0 0 1-2.3-1c.15-.24.63-.15 1-.22 0-.17.39 0 .44-.15.26.06.29-.11.52-.07a9.52 9.52 0 0 0 1.7-.59c.28-.14.41-.43.67-.59a.74.74 0 0 1 .22-.44c0-.28.2-.44.15-.82.11-.21.3-.34.3-.67-.07-.15-.13-.32-.3-.37s-.38-.07-.44-.22a1.37 1.37 0 0 1-.59-.08c-.15 0-.49.09-.52-.07A3.61 3.61 0 0 1 4 12.36c.43-.26 1-.35 1.33-.74.52-.08 1.06-.13 1.11-.67 0-.72-.77-.66-1.33-.82a12.12 12.12 0 0 1-1.89-2.56c.24-.16.56-.23.74-.44.45.06.54-.25.67-.52 0-.49-.33-.61-.59-.81a3.5 3.5 0 0 1-.67-.8 18.47 18.47 0 0 1 .07-2.37c.06 0 .07 0 .07.07.23.44.56.77.82 1.19A8.87 8.87 0 0 0 5.89 5c.45.41 1.11.62 1.56 1a16.41 16.41 0 0 1 1.7 1c.67.19 1.06.67 2 .59l.59-.3c.26-.46-.06-1.08.15-1.63a4.35 4.35 0 0 1 1.26-1.48 7.81 7.81 0 0 0 .85-.54 4.82 4.82 0 0 0 1-.37 6.26 6.26 0 0 0 1-.15h1.26a7 7 0 0 0 .74.15 1.83 1.83 0 0 0 .67.37 4.47 4.47 0 0 1 1.41 3A10.23 10.23 0 0 0 20 8.16zm.3-5.63c-.13.34-.23.71-.59.82 0-.11-.12-.12-.15-.22s.21-.19.3-.3.25-.25.44-.3c.03-.09.15-.05.04 0zm-5.48 3a1.36 1.36 0 0 0 .52.37.71.71 0 0 0 .59.37c0-.15.35 0 .37-.22.17 0 .17-.23.3-.3a2.36 2.36 0 0 0-.37-1.33.93.93 0 0 0-1.37 1.15z"/>
    </symbol>
    <symbol id="htmlacademy" viewBox="0 0 60 60" fill="">
        <path fill="currentColor" d="M30.2 5H30L10.3 7.1v36.2L30 55l19.7-11.7V7.1L30.2 5zm17 36.8L30 52 12.8 41.8V27l17.1 10.2V39l-11.7-7v1.8L30 40.9v1.9l-11.8-7v1.8l11.8 7 11.9-7.1v-7.6l5.3-3.2v15.1zm-.1-17l-4.7 2.8-2.2 1.3-10.3-6.1v1.8l8.8 5.3h-.1l-.2.1-1.3.7-7.3-4.3v1.8l5.8 3.4-1.4.9-4.3-2.6v1.8l2.9 1.7-2.9 1.7-17-10.1 17-10.2 17.2 10zm.1-1.8L29.9 12.8 12.8 23V9.4L30 7.6l17.2 1.8V23z"/>
    </symbol>
    <symbol id="footer-logo" viewBox="0 0 101.615 34.056">
        <path fill="currentColor" d="M19.135 21.495c-.083-2.683-.51-5.347-.475-8.035.028-2.174.389-4.41-.36-6.495.047-.237.096-.473.14-.711.193-1.045-3.271-.492-3.813.464-.343.28-.519.615-.375.957.037.086.069.174.102.261-.656 3.204-1.57 6.306-2.621 9.412-.402 1.188-.888 2.349-1.298 3.533-.582-1.104-1.169-2.194-1.643-3.377-1.374-3.433-2.612-6.902-4.287-10.206.19-1.528-3.204-1.368-3.873.032-.809 1.694-.705 3.403-.438 5.214.3 2.042.353 4.05.377 6.111.047 3.976.358 7.943.417 11.919-.354.395-.461.881-.091 1.375.162.216.361.382.571.549.904.724 3.5.107 3.496-1.271-.014-4.123-.312-8.238-.42-12.358a98.054 98.054 0 0 1-.024-1.21l.171.434c.64 1.604 1.31 3.163 2.185 4.654.868 1.478 1.303 3.064 1.803 4.677-.189.217-.303.462-.233.708-.039.18.07.292.251.36.639.548 1.841.274 2.509-.007a6.07 6.07 0 0 0 .826-.424c.345-.212.883-.679.729-1.159l-.087-.279c.47-1.27.709-2.589.965-3.93.272-1.428.782-2.78 1.295-4.133.052.619.106 1.238.156 1.855.204 2.554.033 5.072.007 7.626-.008.847.054 1.633.219 2.461.068.343.367 1.808.281 1.887-.611.564-.433 1.257.385 1.437.915.201 2.081-.105 2.77-.742 1.198-1.106.632-2.845.361-4.241-.452-2.342.095-4.964.022-7.348zM27.499 22.17c-.074-1.988-.765-3.862-.774-5.872-.011-2.305.181-4.593-.155-6.886-.106-.725-4.056.1-3.917 1.05.309 2.11.197 4.229.159 6.354-.037 2.044.468 3.898.73 5.904.269 2.054-.084 4.157.149 6.213.109.962.75 2.743.089 3.58-.42.532 1.469.342 1.553.326.769-.142 1.793-.392 2.304-1.038.653-.828.196-2.426.053-3.357-.316-2.059-.114-4.195-.191-6.274zM43.828 18.851c-2.062-2.784-5.889-.78-8.561-1.54-1.377-.392-1.395-2.271-1.392-3.396.004-1.426-.114-2.732-.273-4.146-.119-1.052-.024-2.121.746-2.904.142-.144.859-.336.81-.339a8.132 8.132 0 0 1 1.067-.093c1.549-.066 4.613.232 4.019 2.483-.266 1.01 3.596.431 3.877-.637 1.213-4.598-7.284-3.714-9.686-3.078-2.21.588-4.648 1.846-4.775 4.399-.061 1.219.273 2.379.325 3.587.061 1.39-.198 2.776.289 4.118 1.082 2.982 5.52 1.576 7.778 1.745 3.845.287 2.697 5.469 2.748 7.883.027 1.288 1.181 3.429.211 4.507-.595.662-1.982.699-2.792.768-.813.068-2.201.312-2.742-.461-.993-1.418.091-3.799-.121-5.425-.121-.924-4.066-.095-3.917 1.05.342 2.627-1.399 6.145 2.402 6.596 2.441.289 5.191-.161 7.5-.928 1.196-.396 2.307-.942 3.243-1.793 1.035-.941.694-2.348.417-3.547-.677-2.918.731-6.279-1.173-8.849zM61.155 18.662c-.122-3.777-.69-7.513-.706-11.297-.008-1.971-3.963-1.305-3.957.343.015 3.608.497 7.167.682 10.764l.013.221c-1.949-.018-3.899.177-5.853.246.201-4.633-.611-9.227-.435-13.857.022-.582-3.874-.09-3.917 1.049-.171 4.475.587 8.915.453 13.392-.064 2.136-.245 4.264-.259 6.402-.007 1.095.171 2.183.329 3.263.146.999.484 2.331.182 3.318-.237.772 3.561.29 3.862-.694.544-1.778-.222-4.039-.405-5.839-.175-1.725-.039-3.499.083-5.248 2.03-.13 4.059-.297 6.08-.012.09 1.378.196 2.754.322 4.134a45.83 45.83 0 0 1 .196 3.475c.015 1.019.142 2.496-.221 3.461-.773 2.057 3.15 1.889 3.723.364.703-1.87.502-4.199.383-6.164-.148-2.443-.477-4.874-.555-7.321zM78.087 23.136c-.939-2.758-2.373-5.177-3.616-7.797 1.001-1.949 2.018-3.898 2.932-5.888.831-1.808 1.446-3.819 3.08-5.092.574-.447.55-.896-.255-.951-.875-.061-2.064.192-2.77.742-1.485 1.158-2.427 2.563-3.201 4.268a160.304 160.304 0 0 1-2.914 6.075l-.224.443c-.49.315-.785.762-.639 1.266-.792 1.563-1.6 3.117-2.499 4.61-.299-5.534-.955-11.061-1.15-16.6-.045-1.27-3.971-.479-3.917 1.049.243 6.868 1.219 13.719 1.286 20.587l-.047.051c-.301.308-.19.494.051.602a60.756 60.756 0 0 1-.209 5.254c-.472.745.463 1.139 1.084 1.139h.096c.739 0 2.626-.35 2.718-1.364.191-2.1.251-4.196.232-6.291 1.59-1.715 2.89-3.63 4.055-5.635.759 1.48 1.482 2.972 1.989 4.582.861 2.741 2.299 5.261 3.131 8.014.544 1.806 4.457.738 3.917-1.049-.829-2.753-2.204-5.297-3.13-8.015zM101.59 18.501c-.21-.832-1.372-.849-2.271-.77-.012-.335-.02-.671-.036-1.006-.125-2.661-.165-5.379-.392-8.032-.209-2.458-1.585-3.337-3.972-3.247-2.416.092-5.229.527-7.482 1.403-2.607 1.014-4.058 2.935-4.559 5.681-.549 3.014.24 6.219.373 9.246.154 3.503.066 7.014.062 10.519 0 .573 3.916.031 3.917-1.049.003-2.776.042-5.551 0-8.327a52.196 52.196 0 0 0-.102-2.444c1.369-.593 3.687.012 5.05.141 1.107.104 2.169-.166 3.244-.292.021 2.312.107 4.635.202 6.944.049 1.184.477 3.53-.354 4.511-.437.516 1.48.343 1.555.33.793-.146 1.761-.401 2.303-1.041.949-1.12.456-3.79.401-5.126-.078-1.91-.102-3.824-.141-5.737 1.154-.147 2.417-.854 2.202-1.704zm-14.618-.15c-.103-1.245-.217-2.49-.303-3.743-.16-2.331.117-5.583 2.29-6.999.58-.379 1.675-.315 2.354-.438.97-.176 1.956-.389 2.829.19 1.21.802.912 3.657.911 4.869-.003 2.005.207 4.001.31 6.003-.552.055-1.111.089-1.683.076-2.286-.053-4.544-.413-6.708.042zM24.108 6.7a3.157 3.157 0 0 0 1.477-.524l.256-.216c.52-.335.972-.827.728-1.361-.504-1.105-.423-2.231-.416-3.414.006-.958-.963-1.246-1.781-1.174-.723.063-2.168.581-2.175 1.52-.006.993-.071 2.016.109 2.992-.047.113-.074.239-.104.355-.055.212.016.42.142.59l.002.134.015.335a.901.901 0 0 0 .429.53c.388.233.878.275 1.318.233z"/>
    </symbol>
    <symbol id="mail" viewBox="0 0 32 32">
        <path fill="currentColor" d="M28 5H4C1.8 5 0 6.8 0 9v13c0 2.2 1.8 4 4 4h24c2.2 0 4-1.8 4-4V9c0-2.2-1.8-4-4-4zM2 10.2l7 5.2-7 5.2V10.2zM30 22c0 1.1-.9 2-2 2H4c-1.1 0-2-.9-2-2l7.8-5.9 4.4 3.3c.5.4 1.2.6 1.8.6.6 0 1.3-.2 1.8-.6l4.4-3.3L30 22zm0-1.2l-7-5.2 7-5.2v10.4zm-12.8-2.2c-.4.3-.8.4-1.2.4-.4 0-.9-.1-1.2-.4l-4.1-3.1-.8-.6L2 9c0-1.1.9-2 2-2h24c1.1 0 2 .9 2 2l-12.8 9.6z"/>
    </symbol>
</svg>

